<svg width="640" height="640" viewBox="0 0 640 640" fill="none" xmlns="http://www.w3.org/2000/svg">
<path d="M96 160C149 160 192 203 192 256V341.8C221.7 297.1 269.8 265.6 325.4 257.8C351 317.8 410.6 359.9 480 359.9C490.9 359.9 501.6 358.8 512 356.8V544C512 561.7 497.7 576 480 576C462.3 576 448 561.7 448 544V403.2L312 512H368C385.7 512 400 526.3 400 544C400 561.7 385.7 576 368 576H224C171 576 128 533 128 480V256C128 239.4 115.4 225.8 99.3 224.2L92.7 223.9C76.6 222.2 64 208.6 64 192C64 174.3 78.3 160 96 160ZM565.8 67.1998C576.2 58.4998 592 65.8998 592 79.4998V192C592 253.9 541.9 304 480 304C418.1 304 368 253.9 368 192V79.4998C368 65.8998 383.8 58.4998 394.2 67.1998L448 112H512L565.8 67.1998ZM432 172C421 172 412 181 412 192C412 203 421 212 432 212C443 212 452 203 452 192C452 181 443 172 432 172ZM528 172C517 172 508 181 508 192C508 203 517 212 528 212C539 212 548 203 548 192C548 181 539 172 528 172Z" fill="white"/>
</svg>
