<svg width="48" height="48" viewBox="0 0 48 48" fill="none" xmlns="http://www.w3.org/2000/svg">
<path d="M24 0C37.2548 0 48 10.7452 48 24C48 37.2548 37.2548 48 24 48C10.7452 48 0 37.2548 0 24C0 10.7452 10.7452 0 24 0ZM35.8604 18.0488C40.2324 8.24717 31.1752 9.68254 30.6709 9.78027C28.7522 10.1522 26.9773 10.7499 25.3398 11.5068C25.0984 11.4934 24.8551 11.4854 24.6104 11.4854C18.4993 11.4854 13.3834 15.7081 12.0742 21.3682C15.2949 17.7891 17.5495 16.3446 18.8994 15.7666C18.6841 15.9572 18.473 16.1496 18.2656 16.3438C18.1966 16.4083 18.1297 16.4741 18.0615 16.5391C17.9248 16.6693 17.7885 16.8 17.6553 16.9316C17.576 17.0099 17.499 17.0891 17.4209 17.168C17.3027 17.2872 17.1848 17.4065 17.0693 17.5264C16.9873 17.6116 16.9067 17.6969 16.8262 17.7822C16.7184 17.8965 16.611 18.0111 16.5059 18.126C16.4243 18.2151 16.3438 18.3041 16.2637 18.3936C16.164 18.5047 16.0652 18.6161 15.9678 18.7275C15.887 18.8199 15.8067 18.9124 15.7275 19.0049C15.6353 19.1128 15.5443 19.2212 15.4541 19.3291C15.3742 19.4247 15.294 19.5207 15.2158 19.6162C15.1314 19.7194 15.0493 19.8229 14.9668 19.9258C14.8869 20.0255 14.8066 20.125 14.7285 20.2246C14.6542 20.3195 14.5815 20.4141 14.5088 20.5088C14.4267 20.6157 14.3436 20.7227 14.2637 20.8291C14.2065 20.9052 14.1518 20.9808 14.0957 21.0566C13.5876 21.7434 13.1234 22.4174 12.7041 23.0645C12.703 23.066 12.7021 23.0678 12.7012 23.0693C12.5908 23.2397 12.4843 23.4078 12.3799 23.5742C12.3744 23.5831 12.3678 23.5916 12.3623 23.6006C12.2578 23.7676 12.157 23.9323 12.0586 24.0947C12.0551 24.1004 12.0513 24.1066 12.0479 24.1123C11.7835 24.5494 11.5382 24.9707 11.3174 25.3672C10.1599 27.4451 9.59541 28.8973 9.57031 28.9854C5.91271 41.9383 17.3289 36.4688 18.9219 35.6523C20.637 36.4916 22.5678 36.9639 24.6104 36.9639C30.2023 36.9638 34.9595 33.4279 36.7305 28.4902H29.9736C28.9738 30.1635 27.0484 31.2969 24.8369 31.2969C21.597 31.2967 18.9707 28.8649 18.9707 25.8652H37.3652C37.4349 25.328 37.4717 24.7804 37.4717 24.2246H37.4707C37.4707 21.9837 36.886 19.8783 35.8604 18.0488Z" fill="white"/>
<path d="M35.0683 11.6889C36.1757 12.4293 37.064 13.5921 35.5385 17.508C34.0755 15.1773 31.8743 13.349 29.258 12.344C30.4481 11.7746 33.3955 10.5704 35.0683 11.6889V11.6889Z" fill="white"/>
<path d="M11.5323 35.6262C10.6303 34.7098 10.4708 32.478 12.4612 28.4111C13.4657 31.272 15.4703 33.6692 18.0612 35.1906C16.7727 35.8931 13.3519 37.4748 11.5323 35.6262V35.6262Z" fill="white"/>
<path d="M18.9417 22.3818C19.0445 19.4663 21.6061 17.1318 24.7535 17.1318C27.9007 17.1318 30.4624 19.4663 30.5652 22.3818H18.9417V22.3818Z" fill="white"/>
</svg>
