<svg width="48" height="48" viewBox="0 0 48 48" fill="none" xmlns="http://www.w3.org/2000/svg">
<path d="M24 0C37.2548 0 48 10.7452 48 24C48 37.2548 37.2548 48 24 48C10.7452 48 0 37.2548 0 24C0 10.7452 10.7452 0 24 0ZM23.999 9.59961C16.0602 9.59986 9.59986 16.0592 9.59961 23.999C9.59961 31.9391 16.0601 38.3992 23.999 38.3994C31.9392 38.3994 38.4004 31.9402 38.4004 23.999C38.4001 16.059 31.9391 9.59961 23.999 9.59961Z" fill="white"/>
<path d="M23.8086 18.873C23.8184 18.877 24.1999 19.028 24.3467 19.0283C24.4951 19.0283 24.9795 18.9424 24.9795 18.9424C24.985 18.9601 25.2031 19.663 25.2031 19.8105C25.2034 19.9598 25.3518 20.1066 25.6006 20.2061C25.8456 20.3067 26.9862 20.5561 27.4824 20.1592C27.5963 20.0693 27.9648 20.2986 27.9775 20.3066C27.9775 20.3066 29.2165 20.5547 29.415 20.7031C29.6142 20.8525 29.9608 20.9522 30.0605 21.1016C30.1601 21.2499 30.5058 21.6963 30.5547 21.8447C30.6055 21.9931 30.8535 22.5401 30.9033 22.7373C30.9531 22.9355 31.1016 23.4317 31.25 23.6797C31.3989 23.9293 32.2414 25.0188 32.5381 25.5146L33.4326 25.3662C33.429 25.3821 33.3301 25.8131 33.2334 25.96C33.1348 26.1084 32.8369 26.5049 32.6885 26.7031C32.5391 26.9013 32.3418 27.1993 32.0439 27.4463C31.7475 27.6931 31.7458 27.9415 31.5986 28.1406C31.4506 28.3383 31.252 28.7829 31.251 28.7852C31.2526 28.8016 31.351 29.7791 31.3994 29.9756C31.4467 30.1709 31.0655 30.7001 31.0527 30.7178L30.6055 31.165L30.0078 31.957L30.0566 32.7002C30.0566 32.7002 29.6055 33.0489 29.3564 33.2461C29.1105 33.4433 29.1484 33.5928 28.9502 33.792C28.7527 33.9892 27.9774 34.3369 27.7793 34.3867C27.5803 34.4366 26.4873 34.585 26.4873 34.585V34.1396L26.4648 33.6436C26.4648 33.6436 26.3145 33.0488 26.165 32.8506C26.0159 32.6524 26.0809 32.3533 25.833 32.1064C25.5851 31.8585 25.4932 31.6611 25.4434 31.5107C25.3938 31.362 25.498 30.917 25.498 30.917C25.5048 30.8986 25.7 30.3687 25.7969 30.1738C25.8964 29.9758 25.7978 29.6787 25.6982 29.4795C25.5987 29.2803 25.5508 28.7843 25.5508 28.6367C25.5508 28.4884 25.1524 28.2392 25.0039 28.0908C24.8555 27.9424 24.9053 27.743 24.9053 27.5469C24.9052 27.3466 24.7569 26.9013 24.8057 26.5537C24.8552 26.2075 24.3602 26.4541 24.0625 26.5537C23.7647 26.6533 23.5674 26.4541 23.5674 26.1562C23.567 25.8589 23.0223 26.1076 22.6748 26.3047C22.3262 26.5028 21.9306 26.5029 21.5322 26.6523C21.1371 26.8005 20.9404 26.5039 20.9404 26.5039C20.9404 26.5039 20.5917 26.207 20.3457 26.0576C20.0968 25.9093 19.8486 25.6132 19.6494 25.3652C19.4523 25.1163 18.9552 24.3721 18.9072 24.0762C18.8574 23.7774 18.9072 23.578 18.9072 23.2314C18.9072 22.8848 18.9073 22.6865 18.9561 22.4385C19.0059 22.1905 19.1543 21.8925 19.3037 21.6445C19.4522 21.3966 19.9982 21.0996 20.1455 21C20.2941 20.9012 20.6416 20.6044 20.6416 20.4053C20.6419 20.2074 20.8409 20.1091 20.9385 19.9102C21.0391 19.712 21.385 19.2171 21.8311 19.415C21.8311 19.415 22.2263 19.3662 22.375 19.3164C22.5234 19.2666 22.92 19.1191 23.1162 19.0195C23.3144 18.9199 23.8086 18.873 23.8086 18.873ZM11.1836 26.9229C11.2476 26.9391 11.3389 26.9859 11.4678 27.1006C11.6547 27.2631 11.7659 27.3467 12.0137 27.4473C12.2606 27.5479 12.3605 27.6944 12.6582 27.8438C12.956 27.9932 12.8575 27.8947 13.2529 28.3398C13.6503 28.785 13.6006 28.7852 13.6992 29.0342C13.7978 29.2831 13.9473 29.5293 14.0469 29.6797C14.1466 29.828 14.4435 29.9268 14.5918 30.0264C14.7402 30.1259 14.9884 30.2246 15.1367 30.2246C15.2865 30.2253 15.7326 30.67 15.9805 30.7188C16.2239 30.7691 16.2275 31.2494 16.2275 31.2656L15.9805 31.959L15.7812 32.7021L15.9805 33.2969C15.9805 33.2969 15.6815 33.5456 15.4854 33.5459C15.3024 33.5459 15.2402 33.6613 15.04 33.6064C13.1496 31.8409 11.7782 29.5319 11.1836 26.9229ZM33.1357 29.5303C33.1361 29.5383 33.1836 29.733 33.1836 29.877C33.1835 30.0256 33.1338 30.423 33.084 30.6211C33.0321 30.8193 32.9345 31.1663 32.8857 31.3623C32.8359 31.5615 32.5878 31.958 32.4404 32.0576C32.292 32.1573 32.0428 32.4551 31.8955 32.5039C31.7473 32.5529 31.6465 32.156 31.6963 31.958C31.7472 31.7597 31.9941 31.2148 31.9941 31.2148C31.9959 31.2043 32.0449 30.9143 32.0928 30.7188C32.1434 30.5246 32.7208 30.2817 32.7383 30.2744L33.1357 29.5303ZM26.6914 12.1885C26.9391 12.1886 27.2363 12.2947 27.3857 12.2949H28.1289L29.1689 12.2109C29.1689 12.2109 30.0625 12.542 29.7637 12.7412C29.7731 12.7471 30.1144 12.9572 30.2607 13.1035C30.4 13.2438 30.7595 12.9742 30.9658 12.8594C34.6747 15.187 37.1553 19.3052 37.1553 24C37.1553 24.252 37.1324 24.4981 37.1172 24.7471C37.0247 24.5133 36.8842 24.2083 36.8506 24.0771C36.8023 23.88 36.5109 23.1975 36.5049 23.1836C36.5049 23.1836 36.207 22.7874 36.0088 22.6875C35.8116 22.5879 35.662 22.3397 35.3145 22.1426C34.9669 21.9434 34.8192 21.8447 34.5225 21.8447C34.2236 21.8447 33.9277 21.4472 33.5791 21.249C33.2407 21.0571 33.1852 21.1457 33.1826 21.1504C33.1826 21.1504 33.5788 21.7449 33.5791 21.8936C33.5791 22.042 34.0244 22.29 34.4727 22.1904C34.4727 22.1904 34.7696 22.7364 34.918 22.8848C35.0661 23.0331 34.868 23.1827 34.5713 23.3809C34.2735 23.578 34.3233 23.5293 34.1729 23.6777C34.0244 23.8261 33.5293 24.0763 33.3799 24.1738C33.2312 24.2725 32.6365 24.5701 32.3398 24.2725C32.1945 24.1292 32.2392 23.8271 32.1416 23.6279C32.042 23.4297 31.0019 21.8924 30.5059 21.1992C30.4194 21.0772 30.2079 20.701 30.0605 20.6045C29.9123 20.5039 30.4082 20.5039 30.4082 20.5039C30.4082 20.491 30.4071 20.1524 30.3584 19.9102C30.3084 19.666 30.4052 19.326 30.4082 19.3154C30.4082 19.3154 29.9121 19.6123 29.7617 19.7119C29.6144 19.8114 29.4646 19.5146 29.2676 19.2656C29.0694 19.0187 28.8701 18.7196 28.8213 18.4717C28.7719 18.2266 29.0648 18.1265 29.0693 18.125L29.5146 17.8779C29.5229 17.8764 30.0633 17.7797 30.4082 17.8281C30.7548 17.8779 31.2998 17.9277 31.2998 17.9277C31.3029 17.9204 31.4457 17.5786 31.25 17.4316C31.0529 17.2833 30.6046 17.0355 30.4062 17.085C30.2091 17.1337 30.505 16.8369 30.752 16.6387L30.2031 16.5391C30.2031 16.5391 29.7031 16.7871 29.5537 16.8369C29.4053 16.8857 29.1473 16.9856 28.9482 17.2334C28.7511 17.4814 29.0273 17.8281 28.8291 17.9277C28.6321 18.0272 28.498 18.0762 28.3486 18.125C28.2001 18.1747 27.7285 18.125 27.7285 18.125C27.2168 18.1251 27.5445 18.5919 27.6777 18.7578L27.2812 18.2744L26.9873 17.5811C26.9744 17.572 26.5624 17.2827 26.3672 17.1855C26.169 17.0859 25.5576 16.7393 25.5576 16.7393L25.6006 17.1855L26.1748 17.7676L26.2256 17.7803L26.5244 18.1768L25.8643 18.2266V17.834C25.2427 17.6836 25.4051 17.5292 25.335 17.4814C25.1875 17.3828 24.8428 17.1338 24.8428 17.1338C24.8274 17.1364 24.2579 17.2341 24.1104 17.2832C23.9609 17.333 23.9188 17.4815 23.623 17.5801C23.3245 17.6797 23.1904 17.8282 23.0918 17.9766C22.9931 18.125 22.6698 18.5714 22.4736 18.7695C22.2746 18.9682 21.9074 18.9181 21.7588 18.918C21.611 18.918 20.9091 18.724 20.8936 18.7197V17.8789C20.8945 17.8744 20.99 17.4065 20.9414 17.2588L21.375 17.1855L22.0996 17.0361L22.3125 16.8867L22.6172 16.4902C22.6103 16.4852 22.2771 16.2385 22.5215 15.8955C22.6406 15.729 23.0685 15.6972 23.2666 15.5488C23.4612 15.4025 23.7559 15.3044 23.7637 15.3018C23.7637 15.3018 24.1115 15.0048 24.458 14.6572C24.458 14.6572 24.7061 14.5078 25.0029 14.4082C25.0212 14.4243 25.8483 15.1523 25.9961 15.1523C26.1433 15.1518 26.6706 14.8176 26.6895 14.8057C26.6895 14.8057 26.8378 14.3604 26.7891 14.2109C26.74 14.0646 26.499 13.58 26.4922 13.5664C26.4922 13.5664 26.3437 13.8145 26.1953 14.0127C26.0469 14.2109 25.9473 14.459 25.9473 14.459C25.9473 14.459 25.2535 14.4109 25.2041 14.2627C25.1533 14.1133 25.0557 13.8681 25.0049 13.7207C24.9571 13.5713 24.5594 13.5762 24.2637 13.6758C23.9676 13.7745 24.3054 13.1528 24.3115 13.1416C24.3115 13.1416 24.6104 12.7676 24.8076 12.7676C25.0048 12.7675 25.4533 12.5136 25.6494 12.4648C25.8488 12.4149 26.4455 12.1885 26.6914 12.1885ZM13.502 16.2422C13.502 16.4404 13.2317 16.4884 13.502 16.9863C13.8475 17.6307 13.5508 17.9287 13.5508 17.9287C13.5472 17.9312 12.7067 18.5236 12.5586 18.623C12.4101 18.723 12.0144 19.2669 12.2607 19.1182C12.5087 18.9698 12.8056 18.8214 12.5586 19.2178C12.3106 19.6152 11.8642 20.2588 11.7656 20.5078C11.6666 20.7571 11.1712 21.3498 11.1709 21.6475C11.1709 21.9453 10.9736 22.541 11.0234 22.7891C11.057 22.9619 10.9467 23.4713 10.8604 23.6807C10.9274 20.8937 11.8661 18.3255 13.415 16.2246C13.4638 16.2295 13.4995 16.2413 13.502 16.2422ZM22.3496 14.3594L22.9336 15.0049L22.5459 15.3018L21.5137 15.499V14.9736L21.0371 15.498L20.8398 15.2021L21.0371 14.7559L21.5146 14.9463V14.0615L21.9707 13.8145L22.3496 14.3594ZM19.2959 11.7266C19.1434 11.9223 18.9587 12.1229 18.9541 12.1279C18.9541 12.1279 18.6073 12.127 17.9619 12.8223C17.3186 13.5164 17.4668 13.3184 17.3184 13.5156C17.1702 13.7126 17.2186 13.7638 16.8711 14.0127C16.5257 14.2596 16.376 14.5576 16.376 14.5576L15.8311 14.7559L15.3857 14.5576C15.3857 14.5576 14.9877 14.7066 15.0371 14.5078C15.0513 14.455 15.0724 14.3997 15.0947 14.3418C16.3073 13.2227 17.7286 12.3303 19.2959 11.7266Z" fill="white"/>
</svg>
